<svg xmlns="http://www.w3.org/2000/svg" height="440" width="440" viewBox="0 0 440 439.99996"><g fill="#001e22"><path d="M-193 425.4c-.206.316.14-.025 0 0M-184 439.4c-.018.61.545.084 0 0M194 293.4c-1.21-.075-2.4.545-3.67.478-1.24-.066-2.58-.45-3.79-.76-5.14-1.31-9.97-2.96-15.4-3.28-1.83-.107-3.67-.26-5.5-.28-2.27-.028-.2-.648-1.49-1.42-.472-.28-1.07-.214-1.54-.49.13-.554.356-1.12.35-1.7-.006-.925-.87-1.6-1.44-2.2-.585-.615-1.18-1.24-1.65-1.94-.507-.756.095-1.06.8-.75 1.13.484 2.07 1.32 3.12 1.89 1.32.71 2.4.64 3.27-.693-.143-1.01-1.41-1.5-1.39-2.53.654-.025 2.14 1.21 2.61.087.263-.624-.202-1.04.547-1.52.34-.215.75-.338 1.02-.653.675 1.68 2.94.68 4.18.434.15 1.35-2.09 1.5-2.78 2.3-.546.632-.182 1.65.608 1.88.62.174 1.24-.498 1.83-.088-.45.76-1.33 1.08-1.89 1.74-.772.91.38.95.932 1.31-.04.486-.774.275-.784.785.192.53.71.76 1.22.87.612.626 1.09 2.56 2.08 1.18.51-.714 1.5-.358 1.79-1.1.22-.565.025-1.26-.12-1.82.67.23.94 1.02 1.63 1.2 1.04.27 1.38-1.09 1.27-1.84-.212-1.54-1.61-2.65-1.59-4.24 1.68.016 3.58 4.85 5.3 2.26 1.04-1.57-.403-3.24-1.47-4.34-.62-.634-.777-.557-.463-1.29.196-.46.44-.743.992-.634-.47.835-.235 2.18.96 2.09.837-.062.877-1.14 1.65-1.31.155 1.2-1.48 4.07 1.05 2.7.124.272-.77 2.43.834 1.39.548-.352 1.07.498 1.76.44.97-.078.442-1.22.915-1.72 1.11-1.18.175-1.06-.46-2.12.473-.55 1.91.66 2.8.05.81-.558.963-1.7 1.2-2.58.634.282.89.962 1.39 1.39-.007 1.69 1.01 1.07 1.74 2.05.568.765 1.24 1.51 1.73 2.32.73 1.18 1.38 2.49 2.12 3.79.727 1.27.515 1.32-.283 2.46-.552.794-.87 1.64-.944 2.62-.17 2.32 1.22 3.68 1.9 5.74-2.39-.28-4.58-2.03-6.97-2.18m-87.7 13c-1.02-.216-1.99.054-3-.06.105-.4.162-.807.174-1.22.442 1.14 1.79 1.28 1.83-.176.458.07.678-.34 1.13-.346-.03 1.14 1.21 1.08 1.92 1.57-.42.688-1.44.36-2.05.234m-9.98-15c-.066.465-1.1.31-1.56.476.044-.464.95-1.24 1.22-1.66.5-.087.376.936.34 1.18m-26.7-16.9c-.26-.302.216-.46 0 0m369-39.4c-.6-.345-.25-1.41-1.1-1.32-.465.05-.81.658-1.3.514.324-.572 1.15-1.45.684-2.16-.407-.61-1.27-.43-1.84-.2-1.2.483-1.89 1.72-3.2 2.01-.248-.67 1.19-2.28 1.59-2.83.71-.983.335-1.59-.544-2.22-.22-1.09-.335-.924-1.39-1.39-.12-.535-.562-.804-1.05-.958-.09-.548-.51-.936-.607-1.48.85-.335 1.86.88 2.6.158.78-.764-.005-1.31-.36-1.92-.277-.47 1.1-1.28 1.09-1.98-.02-1.44-1.53-.624-2.37-.88-.37-.61-1.19-3.35-2.21-1.62-.416.706-1.33 1.69-1.26.21.052-1.2-.867-.71-1.54-1.3-.782-.696-1.51.58-1.71 1.15-1.03-.342.5-1.23.115-1.88-.322-.54-1.08-.828-1.68-.738.17-.65 2.64-.862 1.9-1.78-.625-.778.844-1.03-.415-1.88-.98-.668.03-2.28-1.82-1.24-.5.28-1.15-.19-1.48.226-.29.37.058.936-.278 1.28-.446-.266-.392-.862-.78-1.17-.656-.52-1.23.296-1.57.734 0 .758-.11 1.55.158 2.26.2.524.398 1.34.014 1.84-1.29-.22-1.02-3.09-2.44-3.4-1.82-.392-1.21 2.31-2.7 2.26.146-.74.955-1.12 1.07-1.87.142-.912-1.15-.596-1.1-.745.232-.73.73-1.39-.756-1.22-.625-.318-.715-1-1.57-.87-.394.36-.446.948-.697 1.4-.29-.02-.537.074-.733.277-.312.45.268 1.18.475 1.55-.332.146-1.08-.564-1.38-.68-.724-.275-.784-.4-1.54.095-.993.65-.87 2.22-1.87 2.76-.778-.705.236-3.11-.088-4.18-1.21-1.12-2.25.47-2.7 1.48-.49-.24-.295-2.02-.372-2.56-.166-1.14-.998-.258-1.24-.972-.26-.78-1.1-.77-1.7-1.09-.374-.66.063-1.12.366-1.64.39-.664.438-1.48-.366-1.84-.284.028-1.95-.418-1.35-.534.8-.153 1.48-.03 1.78-.945.35-1.07-.733-1.12-1.31-1.74-1.05.01-2.07-.358-3.12-.36-.36 0-1.49-.29-.77-.797 1.03-.725 2.54-.165 3.63-.775 2.01-1.13.398-3.32-1.39-3.47-1.75-.146-3.85 1.48-5.49.784.094-.63 1.76-.476 2.31-.7 1.34-.543.397-1.99 1.35-2.7.665.014 1.05 1.36 1.48 1.74.817.726 1.41-.245 1.91-.785.05-.586-.7-.668-.057-1.19.504-.41.702-.134 1.31-.272.94-.214 1.5-1.08.7-1.8-1.05-.945-1.7-1.16-1.04-2.75.416-.99-1.26-1.85-1.36-1.57-.108.3-1.1 1.08-1.52.758-.584-.456.122-.886.016-1.45-.15-.81.656-.16.98.004 1.17.59 3.49.11 2.91-1.68-.35-1.08-1.37-1.8-2.04-2.69 1-.874 2.41 1.34 3.45 1.43.92.08 1.44-.655 1.25-1.51-.124-.58-1.04-.968-.96-1.57.682-.072 1.38.725 1.83.785 1.17.228 1.7-.51 1.22-1.57.485-.032.78.786 1.25.252.256-.29.25-.752.176-1.1-.16-.75 1.2-1.59.63-2.27-.308-.37-1.04-.257-1.45-.452-.383-.184-.61-.81-1.04-.872-.85-.126-.89.892-1.57.96-.19-.502.152-.98.257-1.44.15-.653-.34-.833-.694-1.26-.883.005-1.62.42-2.17 1.09-.303.37-2.46 3.98-2.53 2.43-.067-1.7 2.5-5.18-.81-5.16-1.96.01-2.86 2.93-3.04 4.5-.377-.265-1.06.143-1.31-.35.335-.706 1.3-.54 1.2-1.55-.093-.888-1.28-1.17-1.98-1.32.558-1.12 3.88-.298 2-2.26.41-.664 1.69-.29.537-1.41-.628-.608.03-1.41-.552-1.93-.4-.356-.55-.4-1.07-.054-.648.43-.404.38-1.12.14-.852-.283-1.45.682-1.28 1.42-.958-.013-.406-2.82-2.31-2.56-.485.07-3.27 1.18-3.44.987-.35-1.13 1.08-1.72 1.84-2.18 1.48-.923.96-1.49.604-2.87 1.06-.255 1.39-1.44 1.1-2.38-.115-.37-1.75-2.02-.91-2.13 1.03-.13 2.3.654 2.96-.457.58-.98-.54-1.58-1.15-2.09-.137-.885.973-1.27 1.05-2.09.11-1.36-1.15-1.44-2.07-1.06-1.19.486-1.25-.01-1.86-.9-.79-1.16-.99-.943-2.17-.745.134-1.14-1.18-.81-1.57-1.57.264-.47 1.2.042 1.59-.435.255-.32.175-.67.023-1-.28-.602.215-.754.44-1.27.562-1.3-1.53-.79-1.9-1.31-.61-.85-1.37-.92-1.46.356-.71-.067-.84-1.43-1.6-.103-.227.394-.42 1.84-.837 1.93-.384-.738-.12-1.92-1.19-2.04-.622-.07-1.26.225-1.34.906-.472-.258-.56-.714-1.19-.584-.31.1-.61.076-.908-.07-1.01-.355-1.72.485-2.7.304.832-.802 2.28-.83 3.33-1.16 1.26-.4 2.58-.682 3.75-1.31 1.11-.6 1.88-1.42 1.45-2.75-.498-1.54-2.46-1.22-3.67-1.05-.828.118-2.78.35-1.44-.69.938-.73 2.33-.632 3.35-1.25.79-.48 1.84-1.6.592-2.36-.89-.544-2.12-.07-3.1-.235.365-1.12 2.25-1.21 3.07-1.85 1.46-1.16-.78-1.49-1.41-1.81.005.01 2.76-.66 1.07-1.77-.708-.466-1-.243-1.26-1.18-.17-.616-.38-1.32-1.18-1.13-1.1.27-1.37 1.28-2.66 1.28-1.93-.008-.392 1.56-1.02 2.45-2.36-.27-.854-4.38-3.48-3.92.194-.765 1.25-.712 1.05-1.67-.12-.586-.778-.767-1.28-.83-1.28-.156-2.59 1.03-3.77.67.48-1.32 3.86-2.04 2.73-3.81-.37-.58.202-1.01-.282-1.43-.39-.34-.89-.578-1.02-1.13-.305-1.27-.94-.195-1.68-.245-.168-.795 1.85-1.53.26-2.28-.534-.25-1.21-.202-1.74.015-.255-.462-.665-.814-.872-1.31.478-1.08 1.74-.024 2.37-1.31.5-1.02-.886-1.09-.8-1.82.66.007 1.82.06 1.29-.97-.34-.655.7-.99.23-1.66-.295-.418-.912-.408-1.35-.33-.002-.345-.15-.607-.436-.785-.64-.158-.83.75-1.31.61-.002-.764 1.01-.875.76-1.75-.156-.538-.855-.71-1.28-.948.354-.642 1.6-.085 2.15-.39.765-.42-.3-.93-.146-1.27.536-.447 1.34-.08.624-1.2-.356-.563.186-1.08-.15-1.66-.31-.543-1.27.01-1.83-.193-.867-.314-.92.037-1.35.798-.158.017-.557-1.43-1.04-1.66-.53.097-.963.394-1.22.87-.59 1.1-.333 2.45-.87 3.57-1.31-.77-.23-2.8-1.19-3.79-1.39-1.42-1.94 1.48-3.16 1.09-.15-.785 2.82-1.56.87-2.35 1.14-1.16-1.08-1.16-.832-1.97.228-.735-.716-.74-1.24-.47-.53.268-.43.54-1.03.623-.304.027-.575.14-.81.334-.136.483.442.91.262 1.31-.91-.61-1.28-1.73-2.62-1.31-.716.3-1.81 1.99-2.53 1.92-.314-1.42 2.04-2.85 1.08-4.14-1.17-1.57-2.06 1-2.91.565-.044-.444.298-.594.36-1.01.067-.238.18-.452.336-.644-.063-.677.276-1.55-.655-1.58-.42-.012-.35-1.17-.835-1.56-.47-.368-1.11-.538-1.47-1.04.398-.4 4.13-1.62 1.68-2.65-.984-.41-.93-.143-.896-1.34.015-.6.008-1.45-.693-1.67-.755.19-2.13 1.82-2.68.8-.325-.6-.552-1.3-.538-1.91.025-1.11-.913-1.37-1.74-.63-.515-.81-1.55-.51-1.31.523-.582.225-1.28-.76-1.3.565-.007.538.25 1.17.076 1.7-.396.242-.88-1.67-1.87-1.03-.605.39-.78-2.13-2.12-.54-.465.553-1.82.625-2.51.898-1.07.426-1.52 1.73-2.65 2.24-.33-1.43 1.5-2.48 1.63-3.83.24-2.56-2.93.312-3.02.256-.13-.938.66-1.69.792-2.58.168-1.11-.59-.624-1.22-.815-.07-.348.49-1.26-.324-1.2-.58.043-.99.41-1.58.1-.456-.244-.998-.754-1.51-.31-.612.53-.19.95-.425 1.58-.216.58-.865.605-1.13 1.13.02.643.76.72-.2.88-.976.164-1.3 1.55-2.32 1.47-.32-.986 1.16-2.2.17-3.14-.707-.672-2.02-.448-2.44.436-.445-.39.167-2.06-1.05-1.74-.398.104-.434.59-.84.14-.272-.308-.516-.515-.968-.36-.42.14-.614.575-.62.993-.008.83-.008.502-.7.86-.775.4.335 1.19.516 1.59-.538.137-1.04.428-1.27.958-.32.75-.39.154-1.04.552-.31.19-1.74.926-2.05.668.39-.738.72-2.1.16-2.84-.78-1.02-1.42.57-1.99.834-.33-.676.557-1.83-.688-1.78-.736.03-.952-1.1-1.64-.726-.7.384-.485 1.16-1.29 1.47-1.12.43.015.88.23 1.3-2.32.49.694 1.68.958 2.35-.372.318-1.1-.212-1.57-.086-.522.276-.59.985-.406 1.48.244.67.646.505 1.15.76.728.37-.496.73-.734.707-1.81-.156-.76 2.01-1.7 2.24-1.25.32-.44 3.26-.32 4.04-1.9.79-1.9-2.77-3.56-3.08-2.24-.416-.78 1.76-1.41 2.56-.74-.47-.772-2.12-1.08-2.87-.288-.69-.556-1.41-1.01-2.01-.472-.49-.876-.424-1.16-1.08-.27-.624-.556-.928-1.11-.49-.364-.107-.356-.565-.696-.697-.965.164-.966 1.47-1.92 1.65.225-.704.018-3.08-1.29-2.02-.65.52-.61 1.64-1.23 2.11-.862-1.03.71-4.02-1.83-3.66-1.75.246-1.36 3.08-2.52 3.84.17-1.08-.06-2.34-.834-3.16-.826-.87-1.71.07-2.65-.067.158-.74 1.49-.823 1.48-1.83-.007-1.36-1.35-.89-2.09-.96.134-.594.618-.99.782-1.57 1.2.29 1.59.9 1.66-.87.598.027.53 1.08 1.27.546.34-.246.41-.71.446-1.09.075-.838 1.84-.93 1-2.01-.424-.555-1.26-.7-1.46-1.44-.334-1.28-1.24.175-2.04.08-.013-.946 1.26-1.47.61-2.53-1.09-.445-2.18-.125-3.08.56-.516.39-1.81 2.11-2.58 1.7-.152-.818.842-1.85 1.23-2.5.5-.84 1.4-1.6.775-2.64-.27-.46-1.61-.812-2.09-.61-.78.332-1.57.87-2 1.6-.357.608-.82 1.78-1.58 2.05-.147-.32.122-1.26.076-1.64-.048-.416-.31-.798-.512-1.15-.63-1.1-.166-.7.656-.742.512-.028 2.99.063 2.12-1.33-.56-.898-1.39-1.06-.458-2.13.478-.548.936-1.89-.204-2.07-.728-.118-1.47.294-2.21.262-.256-.4-.378-.86-.594-1.28-.64-1.23-1.84-.85-2.22.295-.572 1.74-1.23.615-1.8-.495 1.44-.275 3-1.13 2.31-2.73-.71-1.64-2.58-.436-3.79-1.37.702-1.41 3.18-.222 3.71-1.63.798-2.1-1.45-1.26-2.23-1.94.402-.7 1.59-.776 2.21-1.22 1.06-.755-.17-1.13-.642-1.57.028-.362 1.99-.245.72-1.46-.54-.52-.685-.035-.748-.922-.025-.37-.058-.908-.402-1.15-.552-.392-.984.16-1.37.464-.545.43-.698-.11-1.25-.062-.815.254-.79 1.23-.696 1.92-1.01.015-1.78-3.19-2.9-.606-.635 1.48 1.14 3.92.11 5.14-1.67-.66-1.19-3.31-2.97-3.93-2.34-.812-2.25 2.79-1.66 3.99.232.468 1.7 2.14.453 2.12-.176.24.104.57-.35.608-.288-.043-.408-.198-.36-.46.195-.785.326-1.2-.475-1.75-.858-.59-1.16.695-2.04.468-.095-.09 2.54-3.97-.172-2.79-.114-.12.968-1.82-.118-1.54-1.1.288-1.14-.565-1.96-.94-.61-.28-.98.368-1.08.855-.19.945-.452.52-1.11 1.1-.205.82.725 1.15.61 1.83-.915-.293-1.18-.807-2.2-.975-.695-.115-1.13.16-1.54.686-.512.65-.816 1.47-1.04 2.22-.257.855-1.01.792-1.05-.11-.027-.55.25-1.06.304-1.59.158-1.53.427-2.57-1.44-2.84.284-.924.114-2.18-.873-2.61-.776-.344-1.71.068-2.44-.435.3-1.01 3.6-2.09 1.5-3.38-.726-.446-1.84.302-2.09-.698-.13-.496.055-1.14-.275-1.58-1.13-1.5-2.62.834-3.14 1.66-.846-.445-2.92-.882-3.13.522-.81-.51-1.53.104-2.35.173.246-.874 1.7-1.45.194-2.16-.7-.332-.154-1.57-1.09-1.57-.898 0-1.18.89-1.98.688-1.49-.377-.408 1.11-.345 1.57-.554-.025-.825-.753-1.27-.17-.203.26-.52.715-.25 1.02.29.333 1.07 1.58.915 2.02-.988-.32-2.66-2.14-2.8.29-.043.765-1.5 1.29-2.17 1.86-.53.44-.696 1.6-1.39 1.77.475-2.76 3.88-5.04 3.69-7.98-.11-1.77-2.03-2.2-3.29-1.26-.934.697-1.52 2.49-2.66 2.79-1.16-1.83 2.91-4.09 1.33-5.82s-2.4 1.51-3.6 1.55c-.124-1.32.955-2.43.83-3.77-.16-1.73-1.45.103-2.14.025.123-.52.64-.855.636-1.42 0-.954-1.05-.625-1.59-.362-.864.418-2.1-1.11-2.93-.16-.473.54-.012 1.16-.207 1.77-.21.66-.916.744-1.22 1.31-.192 1.3 1.09 1.22 1.48 2.18-1.15.95-4.92-.615-3.17 2.69.74 1.39 4.97 1.88 4.87 3.36-.072 1-4.96.028-5.76.304-2.58.896-1.04 3.65.488 4.62.04.885-1.45 2.76-1.46 1.01-.005-.822-.05-1.84-.7-2.46-.737-.698-1.78-.26-2.18.5-.057.11-.8 1.8-.8.596 0-.45-.398-1.29-.955-1.31-.516-.017-.63.516-.96.784-.646-.224-2.33-.59-1.84.77.152.436.64.792.088 1.18-.345.242-.64.47-.48.957.225.7 1.33.65 1.89.84-.49.482-1.3.478-1.73 1.02-.595.745-1.27-.65-2.1.194-1.02 1.04-.75 3.02-1.92 3.92-1.16-.858.163-3.47-.566-4.7-.454-.77-1.27-.936-1.87-.28-.3.322-.216 1.26-.784 1.32-.265-.34.41-2.06-1.05-1.57-.952.32-1.15-.382-2.09-.348-.48.017-.76.45-1.22.522-.436-.063-.665-.544-1.13-.436-.688.16-.585 1.26-.87 1.74-.54-.5-.356-1.66-1.13-1.92-.607-.205-1.3.295-1.55.808-.72 1.48-.165 3.25-.717 4.77-1.43-.085-.77-5.56-2.84-4.74-.496.196-.864.668-1.14.015-.24-.566-1.59.38-1.85.545-.74-.47-1.27.182-2 .02-.446-.1-1.01-.078-1.4-.37.146-.39 3.71-2.96 1.18-3.16-1.23-.1-1.2-.044-1.48-1.3-.13-.58-.375-1.28-1.09-1.29-1.51-.016-1.08 2.32-3.02 1.47-.736-.324-1.91-.297-1.81.812.057.632.5 1.12.646 1.73-.438.026-.706.416-1.06.082-.22-.21-.364-.55-.655-.675-.294-.13-1.68.678-1.94.852-.834.552-.502 1.35-1.67.924-.982-.36-1.22.865-1.99 1.08-.1-1.05 1.72-3.56-.696-2.96-.225-.407.437-.784-.16-1.1-.585-.307-.572.056-1.14.056-.64 0-1.08-.878-1.74-.514-.51.28-.472.998-.355 1.47-.306.41-1.1.365-.864 1.1.17.522.79.7 1.04 1.17-1.08-.025-3.7.396-1.95 1.96.466.415 1.14.674 1.42 1.26.81.142 1.78.392 2 1.31-1.45.408-3.91-1.57-5.05.086-.313 1.29.97 2.17.61 3.4-.232.098-.734-1.59-.888-1.9-.548-1.11-1.1.072-1.64.334-.282-.458-.25-1.72-1.2-.63-.56.645-1.41.282-1.93 1-.114.157.325 2.53.47 2.71.195.25.393.857.77.577.14-.186.308-.21.5-.08-.014.27-1.24.6-1.36.665-.804.44-.45 1.06-1.08 1.42.42.81 1.4 2.75 1.22 3.66-1.6.312-2.01-3.02-3.72-2.76-2.43.366-.265 2.2-.545 3.37-.892-.056-2.88-3.06-3.62-1.37-.236.536-1.37.012-2.01.384-.642.378-1.1 1.01-1.78 1.34-.31-.966.33-2.51-.61-3.22-.89-.15-1.67.118-1.92 1.05-1.11.647-1.67-1.13-2.83-.623-.728.315-.75 1.26-.65 1.93.408.314.606.77.34 1.24-.412.732-.56.56-1.2.4-.762-.19-.872.36-1.54-.124-.352-.256-.8-.366-1.14-.022-.74.737.07 1.55-.88 2.14-.948.59.77 1.25.694 1.33-.453.465-.904.75-.03 1.3.576.36 1.41.665 2.1.62 0 .235-.88.444-1.04.482-.636.162-.945.72-.88 1.52-.76.046-2.59.344-1.54 1.47.93 1-.28 3.06.28 4.25.416.88 1.52 1.64 1.26 2.73-1.72.14-2-3.09-3.57-3.31-2.64-.365-.72 2.46-.695 3.4-1.35.09-3.92-4.09-3.66-.262-.435-.29-.92-1.53-1.53-.79-.452.543-.18 1.07-.296 1.75-.79.687-1.84 1.48-.44 2.28.693.4.947.367 1.16 1.17.312 1.16.777.434 1.37.987.066.678-.023 1.34.325 1.94.288.5.574 1.02.374 1.63-1.09.128-2.24-2.16-3.42-1.42-1.62 1.01-.223 1.79-.242 2.98-.5.072-3.48-.91-2.18 1.05-1.5.12-1.3 2.35.262 2.18.344.378-.475 1.1.435 1.39.836.268 1.2-.694 1.92-.696-.312.473-.46 1.22-.225 1.76.092.212.94.623.97.503-.15.588-.598.842-.21 1.65.38.796-.322 1.07-.187 1.93-.496.26-1.84-1.5-2.91-1.14-1.71.576.2 1.61.03 2.63-.478-.138-1.66-1.4-2.08-.362-.27.67-.084.572-.803.833-.332.122-.64.362-.67.74-.08.935 1.01 1.08 1.03 1.93.026 1.6.868.304 1.48.26-.022.433-.466 2.78-1.21 1.7-.573-.83-.81-.778-1.84-.725-.702.038-1.39.14-2.09.242-.552.205-.23 1-.436 1.39-.69-.22-.584-2.12-.645-2.64-.123-1.05-.42-2.09-1.17-2.87-1.35-1.4-4.23-1.26-4.52.934-.065.475-.15 2.91-.995 2.16-.672-.598-.76-1.6-1.18-2.36-1.23-2.2-3.16.26-3.08 1.89-.852-.3-1.67-2.51-2.49-.686-.414.914-.9.204-1.71.592-.654.315-.402 1.05-.007 1.43 1.33 1.29-.64 1.16-1.2 2.11-.526.886-.41 2.06-.38 3.04.016.47.105 3.41-.905 2.67-.868-.625-.925-2.76-1.21-3.72-.5-1.65-1.27-2.39-2.98-2.39-.88.742-.334 2.06-.87 2.96-.722-.56-.903-2.7-2.2-1.59-.905.776-2.34-.474-2.91.546-.597 1.06.678 1.88-.13 3.09-.77 1.15.6 1.7 1.49 1 .183.695-1.69 1.73-.1 2.22 1 .314 2.66-.63 3.5.13-.412 1.06-1.89.713-1.94 2.2-.04.975.51 1.58 1.47 1.4.403-.078.96.01 1.34-.106.39-.12.537-.44.97-.52.433-.08 2.47-.47 1.53.597-.717.81-1.86 1.07-2.63 1.84-.393.4-.564 1.37-1.24 1.04-.837-.405-2.7-4-3.6-1.13-.234.75.34 1.93-.408 2.45-.92.635-1.18-.49-1.66-.905-1.72-1.49-2.65.485-3.35 1.8-.454.854-1.22 1-.988-.202.148-.755.384-1.4.42-2.22.12-2.67-2.36-.36-3 .38-.563-.623-.11-1.77-.26-2.51-.254-1.26-.97-.243-1.57-.275-.048-.63-.576-1.68-1.29-.886-.69.763-1.32-.07-2.11.1-.865.187-.498.77-.61 1.31-.88.446-1.04.966-2.16.723-2.56-.552-.72 1.92-1.25 2.92-.348.658-.644 1.17.146 1.73.502.355 1.44.01 1.79.545-.366 1.38-3.77-.115-2.85 2.48.46 1.3 2.18 1.54 3.34 1.73.674.105.702.882 1.42 1.22 1.13.52.27.42-.26.585-1.26.344-3.72.44-3.89 2.03-.115 1.09-2.33.395-2.12 2.45.065.626 1.68 3.61.29 2.72-.997-.636-1.45-2.6-2.91-2.32-1.34.26-.706 2.3-.25 3.04-1.01.312-3.25-3.28-3.4-.175-.752.07-.175-1.1-1.06-.545-.335.21-.393.596-.436.95-.12 1.01-1.59 1.25-1.36 2.2.106.44.49.64.898.723.692.144.592.372.87 1.01.57 1.32 1.8-.625 2.13-.248.22.56-.33 1.01-.697 1.31.084.254.095.512.032.774-.085.552.688.938 1.19.88.097.725-.35 1.04.215 1.74.292.36.635.663.744 1.14-1-.015-1.76-.85-2.69-1.12-1.51-.437-.832 1.06-.713 1.73-.41.123-2.47-1.38-1.84.642.304.976-1.41 1.58-.85 2.51.24.4.89.34 1.28.444.72.194.733.73 1.06 1.28 1.12.166 1.28-.825 2.18-1.13.395.734-.935 1.73-.453 2.49.468.732.99 1.55 1.15 2.48-.508.044-3.14-2.51-2.98-.175.085 1.27 1.93 2.49 1.42 3.75-1.26-.372-1.41-1.86-2.61-2.22-1.15-.345-1.9-.84-2.8-1.5-1.02-.75-.978 1.44-1.82.932-.77-.464-1.19.83-1.75 1.05.045-.728.58-1.81-.174-2.35-.712-.69-.474.902-.946-.46-.324-.933-1.16.11-1.72-.188-.505-.27-.95-.655-1.2.192-.21.703-.252 3.71-1.7 2.52-.49-.405-1.98-1.61-2.31-.33-.26.995.592 2.32-.874 2.36-.79.017-.91 1.19-.438 1.63.438.414 1.1.51 1.64.715 1.13.432-.502.788-.826.968-.66.368-1.01.99-1.04 1.74-1.85.322-.262 2.01-.35 3.22-1.35.074-1.76-2.2-3.05-.086.182 1.3 1.48 2.18 1.31 3.57-1.06-.318-1.56-1.53-2.57-1.95-1.28-.532-1.64.826-2.57 1.26-.07-.83.59-1.35-.46-1.58-.605-.132-.78-.836-1.36-1-.674-.19-.946 1.13-1.6 1.46-.894.448-.252.452-.06 1.21-.394.39-1.24.3-.464 1.07.35.35 1.17.81 1.33 1.28-1.3.2-1.82-2.35-3.18-1.44-1.09.718-.374 2.79-1.09 3.8-.636-.214-.67-1.17-.668-1.71.004-.736-.126-.886-.35-1.57-.186-.556-1.06-1.36-1.69-.72-.377.39-.19 1.04-.517 1.47-.58-.184-.15-1.19-.785-1.31-.43-.014-.605.282-.96.437-.273-.116-.558-.195-.853-.235-1.17-.095-.435 1.28-.837 1.8-.37.478-.338 1.4.47 1.31 0 .473-.467.875.2 1.18.56.253 1.22.138 1.81.304-.443.434-1.75.89-1.21 1.76-.018-.028 1.31 1.27.557 1.1-.8-.19-.92-1.07-1.94-.406-.23.15-1.62 1.27-1.21 1.53.712.444.218 1.48-.56.728-.395-.38-.916-1.07-1.53-.544-.548.468-.47 1.48-.386 2.11-.548.524-1.5.29-2 .872-.204 1.02.42 1.31 1.19 1.73.806.434-.232 1.26.22 1.94.807 1.21 3.02-1.32 2.71.146-.195.915-.474 1.67-1.34 2.03-.717.3-1.07.986-.75 1.72.483 1.1 2.71 1.54 2.68 2.72-1.48.27-2.77-1.46-4.3-.75-1.78.832.074 1.51.373 2.32-.584.387-1.08-.54-1.49.27-.354.704-.047.95-.686 1.57-.474.458-.045 1.18.547 1.31.86.193.556.37 1.12 1 .45.51.738-.02.93-.387.233-.452.42.558.54.594 1.36.083 1.14-1.41 2-2 .53.21.034.87.088 1.22.062.404.394.59.524.958-1.09 1.15.383 1.19.608 2-.344.346-.89-.1-1.13.522-.192.492.276.86-.087 1.36-1.02 1.41.647.892 1.27 1.51.295.29.65 1.14 1.09.398.332-.56.393-.42.673.006.504.766 1.45-1.88 1.68-2.06.162.68 1.15 3 1.93 1.32.36-.777.068-2.09.862-2.63.36 1.71.476 3.52 2.53 2.79 1.22.55 1.39.825 2.71.2.626-.295 1.65-.848 2.34-.895.002.225-.95 1.4-1.13 1.57-.705-.097-1.61-.11-2.16.43-1.16 1.15.312 3.02.067 4.36-1.47-.028-1.51-2.12-2.28-2.97-.61-.678-2.13-.387-2.16.613-.017.538.485 1.58-.005 2.01-.89-.49-1.13-1.59-1.92-2.19-1.27-.965-.915.916-1.4 1.24-.468.015-.798-1.92-1.55-.55-.276.503-.172.906-.724 1.18-.356.176-.745.335-1.03.625-.66.672-.144 1.08.488 1.48.762.48.215.732.62 1.43.74 1.28 1.54-.32 2.37.192-.18 1.06-2.35 1.68-.885 2.84.754.595.115.87.19 1.69.052.61.82 1.2.61 1.83-1.26-.274-4.46-3.84-3.66-.175-.68-.202-2.07-2.04-2.05.112.008 1.06-2.11 1.43-1.35 2.68.294.482.928.438 1.32.784.32.28.33.73.515 1.08.624 1.17 1.62-.4 2.34-.385.186.92-.89 1.26-.984 2.1-.115 1.04 1.02 1.38 1.86 1.31 1.98-.175 3.14-3.08 5.14-2.88-.04 1.65-4.33 4.98-1.81 6.42.594.34 1.46.002 1.93.502.196.21.328.58.67.595.687.028.568.472 1 1.13.237.362.45.75.39 1.2-.356.066-4.14-1.08-3.78.132.17.575-.48.648.173 1.34.328.35.89.76.68 1.32-.32.84-1.81 1.29-1.5 2.37.55 1.88 2.55-.085 3.47.964.62.712.68 3.22 2.22 2.38.593-.325.818-1.07 1.14-1.62.543-.95.8-.342 1.44.26-1.28 1.53.958 1.88 1.81 2.32.583.308 1.14-.055 1.57-.435.525-.467.195-1.12.72-1.54 1.31.534-.094 1.71-.07 2.54.04 1.26 1.8.99 2.68 1.2.033.607-2.3 1.13-2.76 1.53-1.25 1.09.75 1.04.932 1.78-1.4-.07-1.55.895-.49 1.6.712.47.054 2.01 1.1 2.23.54.114.86-.312 1.22-.61.547-.447.86-.057 1.49-.125 1.08-.12.505-1.32.78-2.06.714.28.675 1.2 1.25 1.6.837.592 1.72-.314 1.93-1.07.31-1.14.08-2.36-.276-3.46-.088-.27-.58-2.52.426-1.87 1.4.9 1.23 4.62 3.49 4.36 1.94-.22 1.34-2.68 3.12-3.23-.087 1.1-1.1 1.78-1.52 2.71-.482 1.07 1.48.82 1.95.864-1.04.19-.964 1.56.023 1.77.795.165.958-.2 1.61.6.358.438.748.624 1.28.262.442-.302.458-.944.49-1.42.402-.25.88-.394 1.22-.74.902-.91-.872-1.2-.7-2.05.94-.078 1.45.996 2.35 1.13 1.04.16 1.77-.49 2.28-1.34.587-.98.93-2.12 1.64-3.02.703-.048.666.955.622 1.38-.13 1.26-1.4 4.64.85 4.81 1.66.123 1.56-1.89 2.62-2.62.374 1.16.1 2.38.32 3.56.295 1.59 1.44.245 1.91 1.28.66 1.45 2.37 1.12 3.52 1.4.92.225-.66 1.42-.89 1.55-.746.425-1.27.886-1.16 1.83.275 2.22 2.71-.026 3 1.68.16.943.06 1.85 1.02 2.36.75.395 1.34.12 1.71-.614.384-.764.608-1.82 1.68-1.71 1.14.116.542.468 1.08 1.12.282.344.708.515 1.04.798-.072.322-.057.64.047.952.208.55.84.778 1.36.49.394-.218.626-.646 1.04-.832.342.078.684.087 1.03.025.918-.155.75-.834.368-1.51 2.97.97.344-2.82.348-3.66.414-.11 1.17.727 1.55.895 1.02.45 1.03-.272 1.94-.458 1.19.64 1.85 2.14 2.53-.052.26-.83 1.3-.694 1.48-1.69.72-.166 1.32-.616 1.75-1.2.658-.88.82-3.4 2-3.68 1.06 1.9-1.53 4.66.03 6.29 2.01 2.1 2.41-2.26 3.37-2.64 1.09.952-.28 3.21.41 4.47.786 1.42 1.68-.785 2.29-.986.076.745-.73 1.09-.35 1.81.306.575.92.71 1.38.23 1.15-1.2 1.75.114 2.93-.51 1.29-.682.34-1.5.372-2.72.034-1.24 1.69-1.76-.144-2.74.252-.44.878-.448 1.22-.842.412-.484.605-1.1.88-1.66.786-1.61 1.47-.758 1.5.652.027 1.51.452 2.7 2.16 2.73.41-.25.852-1.16 1.31-1.22-.048-.462.026-1.02.61-1.05-.016.87.834 1.69.35 2.35.118.46.133.962.348 1.39.182.368.73.566.744 1 .01.272.572 1.05.79 1.23.557.47.275 1.3-.366.718-.875-.79-2.31-2.51-3.57-2.77-1.07-.22-1.87.975-1.4 1.92.334.665 1.24 1.11 1.27 1.91-.82.202-2.42-1.28-3.05-1.74-.53.123-1.18-.425-1.29.49-.065.54.336 1 .415 1.51-.595-.12-2.06-2.06-2.13-.104-.025.7.278.856-.22 1.48-.412.51-.927.69-.69 1.4.382 1.14 1.76.82 2.34 1.88.21.375.432.77.87.918.46.115.372-.386.784-.35.142.86-.043 1.52.494 2.28.37.526.774 1.04.725 1.73-1.26.055-2.85-1.77-4.04-.73-1.53 1.342.314 1.782.295 3.082-.3-.058-3.26-.48-2.37.774.714 1.01-1.68 1.38-.54 2.34.395.334.965.368 1.43.545.077.395.03 1.12.522 1.31.942.35 1.35-.785 2.09-1.05.01.72-.616 1.79.316 2.21.1.046 1.01.268 1.08.17-.624.9-.662 1.34.176 2.32-.148.44-.606.64-.37 1.17.11.256.49.52.458.83-1.13-.447-2.36-2.18-3.72-1.31-1.55.99.52 1.85.414 2.88-.632-.12-1.61-1.24-2.07-.17-.26.612-.005.743-.64 1.11-.46.272-.878.495-.78 1.1.138.85 1.12.758 1.29 1.602.336 1.6.89.428 1.68.282.282.598-.254 1.23.758 1.05.55-.105.986-.486 1.38-.858.196-.185.508-.653.744-.81.358-.235.366.315.2.472-1.46 1.42.83 3.37 2.09 1.49.29-.428.393-.89.957-.415.66.558.11.458.03 1.22-.093.87.567 1.66 1.39 1.85.42.098.86.035 1.23-.2.585-.37.728-.137 1.44-.234.91-.126.955.825 1.72.88-.832.88-1.75 2.61.043 2.99 1.04.22 2.4-.22 3.35.317-.47 1.11-2.48.93-3.42 1.32-1.54.634-1.12 2.07.375 2.2 1.34.122-.44.652-.61.838-.106.6.123.93.437 1.4-.194.282-.264.59-.208.924.257 1.25 1.52.412 2.19.736 1.54.74.747-.542 1.07-.875.623.07 1.29.912 1.42-.342.064-.636-.176-1.42.147-2.01.758.42.336 1.5 1.46 1.38.545-.056.95-.33.978-.907.043-.936-.656-2-.254-2.92 1.1.19.81 2.38 2.35 2.53-.814.92-.887 3.13.897 2.57.87-.273 1.26-1.47 2.24-1.44.118.743-1.42 1.66-1.48 2.61-.033.56.328 1.54 1.09 1.17.268-.128.394-.51.74-.476.08.44-.6.668-.103 1.14.448.427.75.334 1.14.925.44.65 1.42-.955 2.18-.932.02-.302-.067-.56-.26-.786 1.36-.872-.074-.845-.176-2 .63.2 2.06-.038 1.53-1.01-.375-.69-1.4-.728-1.53-1.6 1.17.116 1.92 1.12 2.68-.152.414-.7.153-.896-.195-1.36-.037-.045.99-1.01 1.15-1.19.305-.328.603-1.42 1.07-1.48.48.955-.574 2.4.675 3.02 1.13.568 1.48-.82 2.11-1.37.72.43.012 2.09 1.21 2.29 1.12.19.638-.978 1.32-1.24 1.02.73.118 1.44 1.74 1.05.532-.13 2.3.024 1.9-1.07-.13-.354-.596-.676-.13-1.03.27-.21.573-.44.32-.838-.32-.5-1.12-.328-1.48-.806.204-.308 2 .758 2.71.05.815-.82.67-2.16 1.29-3.1 1.11.44.234 2.67.788 3.63.845 1.45 2.14-.416 2.35-1.36.95.454.23 2.12.976 2.76.64.54 1.08-.812 1.47.01.322.684.95.69 1.52.22.66-.54 2.55.08 1.95-1.68-.21-.617-.305-1.19-.088-1.83-.32-.553-1.12-.593-1.66-.783.346-.514 1.18-.455 1.68-.744.692-.4.458-1.5-.16-1.84-1.64-.91-2.95-.115-4.58-.6-1.68-.498 1.65-1.34 2.11-1.34.826-.43 1.77-.524 2.08-1.45.232-.684-.324-.58-.25-1.17.904-.473 1.58 1.08 2.11 1.36.995.546 1.15.925 1.61 1.76.548.993.296 1.06 1.48.986.774-.05 1.18.67 1.43-.616.505.138.754.96 1.31.386.415-.426.44-1.14.432-1.69.284-.136.895.832 1.49.788 1.43-.11.22-1.23.866-1.83 1.14.68 1.39 1.41 2.7.412.63-.476.354-1.6.348-2.33 1.09-.035 1.94-.58 2.46-1.52.56-1.01.27-1.46-.242-2.42-.702-1.3 1.36-.295 1.89-.29.81.01 1.63.266 2.42.447 3.54.81 7.08 2.61 10.8 2.74 2.21.08 4.43-.35 6.58.356 2.61.86 5.15 1.93 7.71 2.93 4.32 1.69 8.18 5.02 10.2 9.18 1.99 4.15 1.27 8.6 1.33 13.1-.224.47-.752.633-1.05 1.04-.31.433-.405.968-.61 1.45-.37.863-.285 1.7-.257 2.64.036 1.35.092 2.71.06 4.06-.02 1.06-.375 2.12-.32 3.16.126 2.4-1.31 4.56-.602 7 .294 1.02.938 1.26.89 2.36-.055 1.23.095 2.46.147 3.68.105 2.61-1.35 5.3-2.89 7.38-1.56 2.1-3.43 4.08-5.47 5.72-4.16 3.35-8.95 5.54-14 7.29-9.44 3.29-18.7 4.1-29.8 4.88-4.11.29-57 6.49-57.8 7.7h77.5c7.77.047 15.1.66 16.1 8.95 15.8-8.95 24.3-8.95 29.6 12.3 12.2-21.3 21.2-21.3 38.4-6.71.81-14.6 13.9-14.5 24.4-14.6h75c.54 0 1.08 0 1.65-.005-2.85-2.23-44.7-6.34-52.5-7.65-7.11-1.18-14.2-2.37-21.3-3.62-3.19-.56-6.56-.99-9.65-2.01-2.83-.932-5.86-3.13-8.2-4.96-4.07-3.19-7.65-7.38-10.6-11.6-3.02-4.25-5.07-9.45-5.48-14.7-.496-6.22-.1-12.3-.08-18.6.014-2.96.04-6 1.07-8.82.385-1.04.605-2.03 1.13-3.05.195-.008 1.21 1.94 1.57 2.27-.658.384-2.63.996-.927 1.82.7.335.88.434.442 1.12-.285.452.165 1.04.658 1.06.532.03.74-.604 1.22-.61.544-.006.778.556 1.21.762 1.34.624.67-1.56.79-1.72 1.33.02 1.54 1.54 2.79.35.028-1.04-.583-1.97-.783-2.96.36-.123.904 1.14.784 1.4.45.42.878 1.04 1.57 1.05.503 0 .963-.475 1.48-.263.16.76-.98 1.2-.87 2 .134 1 1.27.56 1.42 1.42.265 1.52 2.18 1.23 2.32-.202.67.034 1.56.962 1.75-.41.065-.5-.732-1.45-.532-1.77-.06.094 1.32.725 1.39.858.124.25-.16.37-.19.574-.112.704.3 1.35.805 1.79 1.04.3 1.64-.772 2.61-.61.192.33-1.12 1.86-1.39 2.35-.34.612-.252 1.16.348 1.57.452.074.782-.19 1.22-.174-.11.525-1.83 1.58-.26 2 1.17.312 1.28.254 2.03 1.32.275.39.73.308 1.13.155.638-.24.18-.73.5-1.22.368-.56 1.3-.374 1.57-1.04-.024-.32-1.44-2.8-.315-2.05.52.345 1.66 1.56 2.26.646 1.15-1.77-.716-3.5-1.78-4.8-.23-.28-2-2.2-.655-2 .88.13 1.38 1.04 2.24 1.23.554 1.61 3.54 1.74 3.76-.15.11-.896-.655-1.86-.396-2.58.155-.437.795-1.36.89-.303.097 1.05-.354 1.86.24 2.9.605 1.06 1.06-.26 1.78-.043-.325.935.21 1.74 1.22 1.31.674-.285.71-.59 1.48-.135.348.205.795.363 1.15.046.438-.39.273-1.16.09-1.62-.25-.62-.05-.675.34-1.19.824-1.08-1.06-1.71-1.67-2.08.534-.734 1.92.128 2.7-.225.875-.39 1.38-1.13 1.33-2.09-.057-1.33-.356-2.61-.374-3.95.655-.118 1.08.37 1.36.895.626 1.22.72 3.52 2.09 4.22 1.13.578 1.75-.51 2.22-1.28-.192-.872-.246-1.73-.26-2.61 1.07-.45 2.28 5.18 3.81 3.68.423-.42.117-.718.825-.27.446.282.886.582 1.38.777 1.07-.152 1.92-1.08 3.05-.96.19 1.4-1.48 3.1-.295 4.34 1.37 1.43 1.86-.88 2.97-.455 1.09.414 1.16 1.85 2.27 2.13 1.35.34 1.56-.76 1.54-1.86-.02-1.28.38-2.94 1.81-1.61.57.535 1.09.02 1.62.558.312.312.93 1.4 1.5.995.875-.608.45-1.66 1.41-2.08 2-.86.062-1.28-.544-1.94.21-.456 1.78.13 1.61-1.07-.106-.76-1.15-.96-1.52-1.54 1.04-.13 2.03.445 3.07.322 1.04-.12.892.375 1.37.986.715-.326.916.394 1.28.814.51.59.99-.33 1.51-.292-.162.558-.74 1.1-.27 1.7.25.314.71.48.79.92-.887.21-1.99-1.44-2.67-.1-.295.593-1.1.393-1.05 1.15.034.483.37.57.082 1.06-1.04 1.75.515.88 1.17 1.75.806 1.07 1.08-.416 1.86-.29.043.407-.042.784-.26 1.13.145.304.32.597.523.87.657.082 1.2-.12 1.61-.632.62-.77 1-2.47 2.05-2.68.06 1.02-.413 1.98-.507 2.98-.13 1.4 1.2.96 1.37 1.82.136.725 1.03.282 1.49.338.332-.042.25.294.436.436.964-.082 1.58.4 2 1.22-.675.007-3.04.176-2.25 1.5.385.65 1.28.43.977 1.32-.148.43-.364.952-.21 1.42.41 1.23 1.84-.432 2.54.078.527.384 1.42 1.82 2.08.7.277-.47.05-1.83.75-1.58.42.147.378.68.554 1 .25.464 2.25.16 2.45-.27.263-.58.836-1.72.505-.36-.164.685.57.728.71 1.26.385-.164.834-.685 1.31-.525.16.765-2.72 2.21-.35 2.27-.103.74-.885.438.016 1.23.407.36 1.37 1.54 1.89.995.516-.536.31-1.05 1.24-.74.57-.53.102-1.08-.085-1.66.62-.112.78.71 1.39.7.8-.018.875-.885.784-1.48-.15-.98-1.81-2.05-1.48-3.05.9.307 2.96 2.89 3.81 1.72.21-.293.568-1.4.835-.47.174.61.63-.12.93.144.095 1.07 2.93 1.49 2.85.076-.03-.532.913-1.32.6-1.66-.16-.175-.92-.36-.84-.684 1.87.042 2.67.042 2.78-2.06.02-.33-.094-1.53.473-1.27.39.175.498.69.57 1.06.17.86.156 2.42 1.4 2.3 1.07-.108 1.17-1.36 1.14-2.2.686-.06.88 1.66 1.2 2.07.59.77 1.64-.532 1.56-.646.26.366.368 1.66 1.15.688.22-.274.37-.642.71-.802.49-.23 1.09.056 1.48-.435.108-.495-.052-.785-.43-1.08-.465-.355-.096-.628-.185-1.14-.145-.85-1.13-.943-1.82-.923.496-.646 2-.985 1.25-2.13-.692-1.05-2.63.045-2.69-1.35-.056-1.25 1.48-1.52.88-2.71-.162-.318-1.34-1.87-.552-1.54.836.356 1.36 2.31 1.81 3.02.742.93 1.68 1.63 2.92 1.25 2.66-.806-1.1-3.66-.83-5.08 1.59-.1 2.41 2.56 4.13 2.59 2.32.036.32-1.82.4-2.59.834-.21 1.53 1.56 2.09.03.244-.66 1.79-1.04 1.39-1.79-.23-.446-.72-.672-1.04-1.03.055-.268.058-.53.004-.8-.312-1.12-.796-.104-1.4-.16.14-2.54-2.15.3-2.96.35-.222-.397.4-.815.45-1.1.114-.646.215-.97-.36-1.49-1.11-.995-2.11 1.41-2.88 1.63.01-.45-.025-.935.138-1.36.266-.7.742-.2 1.29-.545.878-.552.01-1.66-.04-2.36.462-.356.832.168 1.05-.558.083-.308.116-.62.1-.94-.02-.754-.274-1.59-.102-2.34-.086-.403-.51.082-.698-.174.098-.34.14-.685.124-1.04 0-.436-.245-2.45.62-2.01 1.35.69.366 3.22 1.61 4.09 1.04.232 1.35-.474 2.18-.522-.198-.666-.387-1.72 0-2.35 1.06.268.997 2.12 1.54 2.86.317.425.886.508 1.22.075.43-.54 1.32.652 2 .6.575-.045 2.1-1.11 2.22-.23.096.716-.845 1.24-.877 2.01-.026.6.074 1.73 1.14 1.48.687-.16 1.04-1.07 1.69-.382.43.455.623 1.14 1.18 1.48.695.423 1.74-.088 1.69-.89-.038-.534.034-1.3.45-1.7.402-.376.822-.078 1.22.152.368.218.77.375 1.12.61.63.43 1.39 1.3 1.92.22.43-.89.938-.64 1.49-1.32.505-.62-.196-.582-.41-1.04 2.41-.055-.725-2.51-.956-3.05.098-.083 1.12.274 1.37.24.634-.09 1.14-.45 1.42-1.02.535.387 1.13.83 1.63.37.642-.58.18-.736.194-1.42.38-.87.716-1.62 1.28-2.3.726-.894.402-2.31.468-3.36.01-.216-.33-1.21.318-.766.328.222.466.65.56 1.02.223.862.238 1.77.534 2.62.278.806 1.07 1.43 1.91.848 1.14-.785.11-2.07.854-2.85.795.645.885 1.98 1.37 2.83.9 1.57 1.19-.63 1.68-.828.392.376.77 2.34 1.57.802.63-1.22 1.32-.635 2.26-1.41.192-1.21-.995-1.75-.845-2.85.053-.372.215-1.07-.25-1.28-.262-.12-.91-.074-.54-.542.623-.79.515-1.76.765-2.73.264-1.04.536-.372.955.26.618.928 1.13 2.38 2.51 1.79.904-.39 1.04-1.47.806-2.31.802.19 1.82 1.81 2.45.47.34-.73 1.83-.44 1.65-1.69-.057-.403-.438-.564-.685-.825-.385-.403.1-.84.25-1.26-.424-.76-1.26-.958-2-.523-.074-.455.498-.76.68-1.11.37-.698-.46-.818-.68-1.33.66-.398.96-.565.96-1.35-.145-.422-.02-.716.38-.884.2-.112.78-.91.928-.902.502 2.41 3.54 3.51 3.05.262.738.156.725 1.84 1.78.95.754-.63 1.2-.077 1.97-.514.65-.565-.26-1.81.083-2.65.475-1.18-.707-.626-1.21-.66.074.044.207-1.26.085-1.57-.81-.092-1.97.623-2.7.26-.03-.603.96-.845 1.22-1.31-.03-.828-.15-1.57-1.18-1.48-.436.036-.888.195-1.26.44-.216-.19-.42-.395-.61-.61.276-.84 1.2-.98 1.16-1.94-.025-.72-.39-1.29-1.07-1.54.29-1.02.24-1.5-.513-2.34-.778-.87-3.02-1.59-3.22-2.82-.164-1.02 4.01.853 4.61.96 1.55.286 3.74-1.05 1.84-2.39-.115-.08-1.17-.7-.975-.985.214-.44 1.27.102 1.6.118.695.028.468-.257 1.16-.047.26.064.5.022.72-.126.35-.215.696-.77 1.13-.816.07.747-.6 1.45-.388 2.2.21.756.72.205 1.17.33-.293 1.85.958.586 2.01 1.15.54.29.925.182 1.18-.384.32-.71.335-.13.79-.52.482-.41 2.13 1.17 2.34-.076.094-.566-.158-1.15.214-1.66.18-.25.6-.51.612-.855.015-.47-1.57-1.51-1.21-1.58.708-.14 1.79.408 2.28-.4.614-1.02-.44-1.92-1.23-2.35-.346-.196-.712-.356-1.06-.547-.075-.608-.452-.998-.87-1.4.79-.385 1.77.026 2.6-.005 1.11-.045 1.22-1.07 2.08-1 2.14.16 1.28-2.4 1.24-3.61 1.16.122.99 1.93 1.8 2.49 1.29.89 1.58-1.21 1.42-1.97.96-.045.878 1.64 2 1.57.54.027.145-1.11.783-.582.373.31.448.645.85.07.176-.28.328-.574.454-.88.35-.054.66-.186.94-.4.488-.424.177-.912-.242-1.26-.57-.465-.24-1.2-.958-1.57-.35-.02-.798.42-1.13.26-.04-.65.882-.75.96-1.39.07-.605-.53-.964-.437-1.57.784-.154 1.97 2.42 2.7 1.01.482-.93.232 0 .87-.053.59-.022.412-.76.61-1.13.567-1.08 2.03-1.26.31-2.24M-94.5 411.4c-.5-.43-.005 1.17 0 0"/></g></svg>