<svg xmlns="http://www.w3.org/2000/svg" width="50" height="50" viewBox="0 0 338 338"><path d="M169 0v.002c-46.694 0-88.898 18.899-119.498 49.502C18.902 80.104 0 122.305 0 169.002c0 46.692 18.903 88.894 49.502 119.496 30.6 30.6 72.803 49.501 119.498 49.502 46.694 0 88.899-18.902 119.498-49.502C319.099 257.898 338 215.693 338 169.002c0-46.694-18.9-88.897-49.502-119.498C257.898 18.9 215.695 0 169 0zm0 13.191c43.045 0 81.974 17.503 110.236 45.67 28.168 28.167 45.573 67.094 45.573 110.141 0 43.048-17.406 81.97-45.573 110.234-28.262 28.168-67.19 45.572-110.236 45.573-43.044 0-81.973-17.406-110.14-45.573-28.169-28.262-45.667-67.187-45.667-110.234 0-43.046 17.498-81.974 45.666-110.14C87.027 30.693 125.956 13.19 169 13.191zm-45.734 81.844L43.15 242.965h171.584l80.116-147.93z"/></svg>