<svg xmlns="http://www.w3.org/2000/svg" viewBox="0 0 3.30925 3.30925" xmlns:xlink="http://www.w3.org/1999/xlink"><path d="M2.73391 0.576282c-0.276703,-0.275775 -0.657854,-0.447122 -1.07929,-0.447122 -0.421425,-9.47193e-006 -0.802575,0.171347 -1.07835,0.447122 -0.275785,0.275775 -0.447094,0.656907 -0.447094,1.07835 0,0.421463 0.171309,0.802566 0.447094,1.07927 0.275775,0.275766 0.656926,0.446194 1.07835,0.446194 0.421444,-9.47193e-006 0.802585,-0.170419 1.07929,-0.446194 0.275775,-0.276722 0.446185,-0.657797 0.446185,-1.07927 0,-0.421453 -0.170409,-0.802575 -0.446185,-1.07835l0 0zm-1.07929 -0.576282c0.457172,0 0.870376,0.185044 1.16997,0.484669 0.299607,0.299607 0.48465,0.712791 0.48465,1.16996 0,0.457134 -0.185044,0.870366 -0.48465,1.16996 -0.299588,0.299597 -0.712801,0.48465 -1.16997,0.48465 -0.457172,-9.47193e-006 -0.870366,-0.185053 -1.16996,-0.48465 -0.299588,-0.299616 -0.48466,-0.71281 -0.48466,-1.16996 0,-0.457191 0.185072,-0.870357 0.48466,-1.16996 0.299597,-0.299626 0.712791,-0.48466 1.16996,-0.48466l0 -9.47193e-006z"/><path d="M1.78105 1.31653l0 -0.135572c0,-0.0650532 0.0430594,-0.0806156 0.074241,-0.0806156 0.0302155,0 0.189637,0 0.189637,0l0 -0.289528 -0.261122 0c-0.290419,0 -0.355472,0.214378 -0.355472,0.353653l0 0.152062 -0.168591 0 0 0.204319 0 0.133763 0.1704 0c0,0.383888 0,0.844754 0,0.844754l0.338101 -9.47193e-006c0,0 0,-0.467269 0,-0.844726l0.250106 -1.89439e-005 0.0110159 -0.132825 0.0201468 -0.205257 -0.268463 0z"/></svg>