<svg xmlns="http://www.w3.org/2000/svg" width="50" height="50" viewBox="0 0 3.28513 3.28511" xmlns:xlink="http://www.w3.org/1999/xlink"><path d="M2.714 0.572078c-0.274694,-0.273764 -0.653046,-0.443861 -1.07143,-0.443861 -0.417448,-9.40283e-006 -0.796702,0.170097 -1.07046,0.443861 -0.273764,0.273764 -0.443833,0.652115 -0.443833,1.07048 0,0.418389 0.170069,0.796712 0.443833,1.0714 0.273764,0.273754 0.652999,0.442939 1.07046,0.442939 0.418398,-9.40283e-006 0.79674,-0.169176 1.07143,-0.442939 0.273764,-0.274704 0.442902,-0.652999 0.442902,-1.0714 0,-0.418379 -0.169138,-0.796721 -0.442902,-1.07048l0 0zm-1.07143 -0.572078c0.453856,0 0.864939,0.183694 1.16146,0.481134 0.297412,0.297421 0.481115,0.707592 0.481115,1.16143 0,0.4538 -0.183703,0.864017 -0.481115,1.16143 -0.296509,0.297412 -0.707601,0.481115 -1.16146,0.481115 -0.452916,-9.40283e-006 -0.86397,-0.183703 -1.16142,-0.481115 -0.297402,-0.29743 -0.481143,-0.70761 -0.481143,-1.16143 0,-0.453856 0.183731,-0.864008 0.481143,-1.16143 0.297449,-0.29744 0.708504,-0.481124 1.16142,-0.481124l0 -9.40283e-006z"/><path d="M2.17374 1.64254c0,-0.292861 -0.237375,-0.531129 -0.531176,-0.531129 -0.292861,-9.40283e-006 -0.531129,0.238277 -0.531129,0.531147 0,0.293763 0.238268,0.531138 0.531129,0.531138 0.293801,-9.40283e-006 0.531176,-0.237365 0.531176,-0.531138l0 -1.88057e-005zm-0.010014 -0.602994c-0.0472681,0 -0.0854906,0.0382131 -0.0854906,0.0854906 9.40283e-006,0.0473057 0.0382131,0.0855 0.0854812,0.0855 0.0473057,0 0.0855188,-0.0381849 0.0855188,-0.0855 0,-0.0472963 -0.0382131,-0.0854718 -0.0855188,-0.0854718l9.40283e-006 -1.88057e-005zm-0.954971 -0.122754l0.868587 0c0.160986,0 0.291939,0.130934 0.291939,0.291949l0 0.868549c0,0.160995 -0.130963,0.291958 -0.291939,0.291958l-0.868587 -1.88057e-005c-0.161005,0 -0.291939,-0.130944 -0.291939,-0.29192l0 -0.868577c0,-0.161005 0.130925,-0.291939 0.291939,-0.291939l0 0zm0.868587 -0.0973381l-0.868587 0c-0.213717,0 -0.389259,0.174611 -0.389259,0.389287l0 0.868549c0,0.213717 0.175542,0.389277 0.389259,0.389277l0.868587 -1.88057e-005c0.214657,0 0.389268,-0.175523 0.389268,-0.38924l0 -0.868577c0,-0.214676 -0.17462,-0.389268 -0.389268,-0.389268l0 -9.40283e-006zm-0.854953 0.823087c0,-0.231902 0.188282,-0.421087 0.420175,-0.421087 0.232871,0 0.421115,0.189185 0.421115,0.421106 0,0.232805 -0.188245,0.421115 -0.421115,0.421115 -0.231893,0 -0.420175,-0.188301 -0.420175,-0.421115l0 -1.88057e-005z"/></svg>