<svg xmlns="http://www.w3.org/2000/svg" viewBox="0 0 3.32601 3.32598" xmlns:xlink="http://www.w3.org/1999/xlink"><path d="M2.7468 0.579197c-0.27718,-0.27717 -0.660201,-0.449384 -1.08386,-0.449384 -0.423557,-9.51984e-006 -0.806588,0.172214 -1.08469,0.449384 -0.277132,0.27717 -0.448413,0.660229 -0.448413,1.08381 9.51984e-006,0.423595 0.171281,0.806626 0.448413,1.08473 0.278113,0.277161 0.661134,0.448451 1.08469,0.448451 0.423661,-9.51984e-006 0.806683,-0.171281 1.08385,-0.448451 0.27718,-0.278122 0.449356,-0.661124 0.449356,-1.08473 0,-0.423585 -0.172185,-0.806635 -0.449356,-1.08381l9.51984e-006 0zm-1.08386 -0.579197c0.458628,0 0.874826,0.18598 1.17591,0.487121 0.301113,0.301122 0.487168,0.716397 0.487168,1.17588 0,0.459447 -0.186056,0.874769 -0.487168,1.17588 -0.301074,0.301113 -0.717291,0.487102 -1.17591,0.487102 -0.459456,-9.51984e-006 -0.875702,-0.185989 -1.17583,-0.487102 -0.301113,-0.301132 -0.487102,-0.716416 -0.487102,-1.17588 0,-0.459504 0.18598,-0.874759 0.487102,-1.17588 0.300142,-0.301141 0.716378,-0.487111 1.17583,-0.487111l0 -9.51984e-006z"/><path d="M1.67772 2.33704c-0.141827,0 -0.27439,-0.0423538 -0.384916,-0.115095l-0.268869 0.0856405 0.0865449 -0.258768c-0.083746,-0.11419 -0.133497,-0.255989 -0.133497,-0.407935 9.51984e-006,-0.023019 0.000904385,-0.0441911 0.00366514,-0.0672196 0.0349949,-0.352662 0.334223,-0.627957 0.697062,-0.627957 0.368323,0 0.671244,0.282673 0.69888,0.640866 0.00185637,0.0184019 0.00184685,0.0368323 0.00184685,0.0543107 9.51984e-006,0.383078 -0.313974,0.696157 -0.700727,0.696157l9.51984e-006 0zm0.382117 -0.528532c-0.0211245,-0.0101672 -0.120569,-0.0598703 -0.139047,-0.0672386 -0.0202773,-0.00551199 -0.0331481,-0.0101291 -0.0469423,0.0110525 -0.0129279,0.0202582 -0.0525305,0.0653632 -0.0644208,0.0782531 -0.0120236,0.0147558 -0.024009,0.0156792 -0.0432867,0.00643541 -0.022067,-0.0101196 -0.0875159,-0.0312727 -0.164827,-0.101244 -0.0616981,-0.0543773 -0.103138,-0.119731 -0.11419,-0.139075 -0.011043,-0.0221051 -0.00187541,-0.0312727 0.00826322,-0.0432582 0.0101481,-0.00828226 0.0211531,-0.0221051 0.0313298,-0.035014 0.00276075,-0.00274171 0.00551199,-0.00551199 0.00735884,-0.00919617 0.00554055,-0.00832034 0.00826322,-0.0147462 0.0128613,-0.0239424 0.00735884,-0.0138228 0.00459808,-0.0257797 -0.00180877,-0.0349949 -0.0036937,-0.0101481 -0.045105,-0.111411 -0.0626691,-0.151032 -0.0165264,-0.0414018 -0.0340525,-0.034062 -0.0450384,-0.034062 -0.0129565,-9.51984e-006 -0.0258273,-0.00181829 -0.0396311,-0.00181829 -0.0147653,0 -0.0358993,0.00459808 -0.0543012,0.0257797 -0.0203153,0.0202392 -0.0727792,0.0681525 -0.0727792,0.169415 9.51984e-006,0.0230095 0.00459808,0.0469614 0.0119569,0.0681621 0.0193443,0.0727316 0.0653918,0.130745 0.0718653,0.140903 0.0101481,0.0137562 0.140856,0.224649 0.34894,0.305692 0.209027,0.0810329 0.209027,0.0533968 0.245869,0.0506456 0.0368418,-0.00278931 0.120635,-0.0478943 0.138133,-0.0966835 0.0165645,-0.0469709 0.016555,-0.0874778 0.011043,-0.0967121 -0.00458856,-0.00642589 -0.0184304,-0.0128899 -0.0386886,-0.022067l9.51984e-006 0zm0.451193 -0.187874c-0.0119474,-0.447499 -0.380308,-0.805702 -0.833319,-0.805702 -0.447471,-9.51984e-006 -0.813099,0.348969 -0.831501,0.790052 -0.00183733,0.011043 -0.00184685,0.0239424 -0.00184685,0.0358993 9.51984e-006,0.155649 0.0442006,0.302055 0.119731,0.427289l-0.151032 0.443834 0.462255 -0.146425c0.119693,0.0653823 0.256912,0.102234 0.402394,0.102234 0.460437,-9.51984e-006 0.834224,-0.369256 0.834224,-0.826931 9.51984e-006,-0.0073398 -0.000904385,-0.0128899 -0.000904385,-0.0202392l0 -9.51984e-006z"/></svg>