<svg xmlns="http://www.w3.org/2000/svg" viewBox="0 0 3.30162 3.30253" xmlns:xlink="http://www.w3.org/1999/xlink"><path d="M2.72668 0.574947c-0.275175,-0.275165 -0.655452,-0.445142 -1.07591,-0.445142 -0.42044,-1.89e-005 -0.800698,0.169987 -1.07586,0.445152 -0.275997,0.275127 -0.446021,0.656321 -0.446021,1.07677 0,0.419552 0.170015,0.800727 0.446021,1.07586 0.275165,0.275099 0.655414,0.446059 1.07586,0.446059 0.420459,-9.45e-006 0.800736,-0.17096 1.0759,-0.446059 0.276006,-0.275137 0.445955,-0.656312 0.445955,-1.07586 0,-0.420459 -0.169949,-0.801634 -0.445955,-1.07677l9.45e-006 -9.45e-006zm-1.07591 -0.574947c0.456161,0 0.868379,0.185541 1.16728,0.483547 0.298885,0.298903 0.483556,0.712057 0.483556,1.16818 1.89e-005,0.455188 -0.184691,0.86837 -0.483556,1.16725 -0.298903,0.297996 -0.711122,0.483556 -1.16728,0.483556 -0.456151,0 -0.86837,-0.185551 -1.16727,-0.483556 -0.298837,-0.298875 -0.4835,-0.712057 -0.4835,-1.16725 9.45e-006,-0.456133 0.184662,-0.869277 0.4835,-1.16818 0.298903,-0.298006 0.711122,-0.483528 1.16727,-0.483528l0 -1.89e-005z"/><path d="M1.93232 1.63255l-0.456123 0.245823 0 -0.378406 0 -0.115158 0.206605 0.112455 0.249518 0.135286zm0.544774 -0.332753c0,0 -0.0173124,-0.121565 -0.0676525,-0.17457 -0.0639387,-0.0694858 -0.136184,-0.0703836 -0.168153,-0.0749763 -0.235815,-0.017388 -0.589576,-0.0173691 -0.589576,-0.0173691l-0.00186165 -1.89e-005c0,0 -0.352787,1.89e-005 -0.588678,0.017388 -0.0337648,0.0045927 -0.105075,0.0054999 -0.169051,0.0749763 -0.0503118,0.053005 -0.0676147,0.174579 -0.0676147,0.174579 9.45e-006,-9.45e-006 -0.0174352,0.142591 -0.0174352,0.283339l0 0.0182952 0 0.116084c0,0.142591 0.0174352,0.283377 0.0174352,0.283377 9.45e-006,-9.45e-006 0.0173029,0.121574 0.0676147,0.175486 0.0639765,0.0703647 0.148119,0.0676714 0.186486,0.0749385 0.134351,0.0137308 0.573105,0.0183046 0.573105,0.0183046 9.45e-006,-9.45e-006 0.353742,-0.0018333 0.589576,-0.0183046 0.0319882,-0.0045738 0.104215,-0.00456435 0.168153,-0.0749385 0.0503401,-0.0539122 0.0676431,-0.175486 0.0676431,-0.175486 9.45e-006,-9.45e-006 0.0164335,-0.140786 0.0164335,-0.283368l0 -0.108788 0 -0.0256095c0,-0.140739 -0.0164335,-0.28333 -0.0164335,-0.28333l9.45e-006 -9.45e-006z"/></svg>