<?xml version="1.0" encoding="UTF-8"?>
<!DOCTYPE svg PUBLIC "-//W3C//DTD SVG 1.1//EN" "http://www.w3.org/Graphics/SVG/1.1/DTD/svg11.dtd">
<!-- Creator: CorelDRAW -->
<svg xmlns="http://www.w3.org/2000/svg" xml:space="preserve" width="34.9378mm" height="34.9381mm" style="shape-rendering:geometricPrecision; text-rendering:geometricPrecision; image-rendering:optimizeQuality; fill-rule:evenodd; clip-rule:evenodd"
viewBox="0 0 2.37548 2.3755"
 xmlns:xlink="http://www.w3.org/1999/xlink">
 <defs>
  <style type="text/css">
   <![CDATA[
    .fil0 {fill:black}
   ]]>
  </style>
 </defs>
 <g id="Camada_x0020_1">
  <metadata id="CorelCorpID_0Corel-Layer"/>
  <g id="_214656896">
   <path id="_214659560" class="fil0" d="M1.96182 0.413708c-0.197971,-0.198603 -0.471522,-0.320954 -0.774057,-0.320954 -0.302569,0 -0.576113,0.122351 -0.774098,0.320954 -0.198569,0.197957 -0.320927,0.471515 -0.320927,0.774077 6.79916e-006,0.302488 0.122351,0.576065 0.320927,0.774023 0.197985,0.198631 0.471522,0.320934 0.774098,0.320934 0.302549,0 0.576072,-0.122303 0.77405,-0.320934 0.19861,-0.197957 0.320934,-0.471535 0.320934,-0.774023 6.79916e-006,-0.302563 -0.12233,-0.57612 -0.320934,-0.774077l6.79916e-006 0zm-0.774043 -0.413708c0.328141,0 0.624747,0.132883 0.839812,0.34794 0.215057,0.215037 0.347886,0.511643 0.347886,0.839846 1.35983e-005,0.328127 -0.132828,0.624761 -0.347886,0.839818 -0.215057,0.21503 -0.511671,0.347893 -0.839825,0.347893 -0.328195,0 -0.624781,-0.132862 -0.839818,-0.347893 -0.215098,-0.215057 -0.34794,-0.511691 -0.34794,-0.839818 1.35983e-005,-0.328202 0.132835,-0.624809 0.34794,-0.839846 0.215044,-0.215057 0.511623,-0.34794 0.839818,-0.34794l1.35983e-005 0z"/>
   <path id="_436669920" class="fil0" d="M1.62939 1.40942l-0.211855 -0.220809 0.211855 -0.220843 0 0.441653zm-0.808767 0.0820114l0.213766 -0.222931 0.114967 0.119808c0.0211726,0.0220837 0.0554607,0.0220837 0.0766265,0l0.115008 -0.119808 0.213793 0.222931 -0.734159 0zm-0.0746888 -0.0820658l0 -0.441497 0.211828 0.220741 -0.211828 0.220755zm0.810466 -0.525371l-0.253751 0.264569 -0.114953 0.119937 -0.11494 -0.119937 -0.253867 -0.264569 0.737511 0zm0.0178206 -0.110398l-0.773064 0c-0.0914895,0 -0.16558,0.0741788 -0.16558,0.165689l0 0.496862c0,0.0915031 0.0740768,0.165743 0.16558,0.165743l0.773064 -2.03975e-005c0.0915235,0 0.165668,-0.0741992 0.165668,-0.165709l0 -0.496876c0,-0.0915235 -0.0741788,-0.165689 -0.165668,-0.165689z"/>
  </g>
 </g>
</svg>
