<?xml version="1.0" encoding="UTF-8"?>
<!DOCTYPE svg PUBLIC "-//W3C//DTD SVG 1.1//EN" "http://www.w3.org/Graphics/SVG/1.1/DTD/svg11.dtd">
<!-- Creator: CorelDRAW -->
<svg xmlns="http://www.w3.org/2000/svg" xml:space="preserve" width="34.9377mm" height="34.9476mm" style="shape-rendering:geometricPrecision; text-rendering:geometricPrecision; image-rendering:optimizeQuality; fill-rule:evenodd; clip-rule:evenodd"
viewBox="0 0 3.34222 3.34317"
 xmlns:xlink="http://www.w3.org/1999/xlink">
 <defs>
  <style type="text/css">
   <![CDATA[
    .fil0 {fill:black}
   ]]>
  </style>
 </defs>
 <g id="Camada_x0020_1">
  <metadata id="CorelCorpID_0Corel-Layer"/>
  <g id="_436676832">
   <path id="_214658840" class="fil0" d="M2.76116 0.582105c-0.279468,-0.278549 -0.664393,-0.450693 -1.09005,-0.450693 -0.424702,0 -0.810546,0.172144 -1.08906,0.450703 -0.278521,0.279391 -0.451545,0.664317 -0.451545,1.08998 0,0.424673 0.173024,0.810546 0.451545,1.08903 0.278521,0.278549 0.664345,0.451574 1.08906,0.451574 0.425668,0 0.810584,-0.173024 1.09005,-0.451574 0.278521,-0.278482 0.450598,-0.664355 0.450598,-1.08903 0,-0.425659 -0.172077,-0.810584 -0.450598,-1.08998l0 -9.56622e-006zm-1.09005 -0.582105c0.461742,0 0.879968,0.187938 1.18164,0.489504 0.30258,0.302618 0.489475,0.720815 0.489475,1.18259 0,0.460786 -0.186895,0.878983 -0.489475,1.18163 -0.301661,0.302551 -0.719896,0.489446 -1.18164,0.489446 -0.460786,0 -0.878983,-0.186895 -1.1816,-0.489446 -0.30257,-0.302647 -0.489504,-0.720844 -0.489504,-1.18163 0,-0.461771 0.186924,-0.879968 0.489504,-1.18259 0.302618,-0.301566 0.720815,-0.489504 1.1816,-0.489504l0 0z"/>
   <path id="_78100456" class="fil0" d="M0.719906 2.11158l0 0c-0.0379301,0 -0.0693934,-0.0314537 -0.0693934,-0.0702926l9.56622e-006 -0.140662c0,-0.0388771 0.0314442,-0.0703596 0.0693838,-0.0703596 0.0388771,0 0.0703213,0.0314824 0.0703213,0.0703596l9.56622e-006 0.140652c0,0.0388484 -0.0314537,0.0703022 -0.0703309,0.0703022l0 0zm1.72571 0c0.13695,0 0.247029,-0.108261 0.247029,-0.247067 9.56622e-006,-0.13695 -0.110079,-0.24612 -0.247029,-0.24612 -0.026862,0 -0.0527482,0.003683 -0.0795814,0.0148181 -0.0434976,-0.230364 -0.244293,-0.401561 -0.483027,-0.401561 -0.0360742,0 -0.0712397,0.00279334 -0.105487,0.0101211l0 0.869809 0.408105 0 0.259991 0zm-0.879968 0l0 0c-0.0388389,0 -0.0703309,-0.0389154 -0.0703309,-0.0888224l9.56622e-006 -0.528323c0,-0.0481564 0.0314824,-0.0869952 0.0703213,-0.0869952 0.0388484,0 0.0703309,0.0388389 0.0703309,0.0870048l0 0.528314c0,0.049907 -0.0314824,0.0888224 -0.0703309,0.0888224l0 0zm-0.281285 0l0 0c-0.0397859,0 -0.0712397,-0.0314537 -0.0712397,-0.0702926l0 -0.422894c0,-0.0379301 0.0314537,-0.0712779 0.0712397,-0.0712779 0.0388484,0 0.0703022,0.0333479 0.0703022,0.0712779l0 0.422884c0,0.0388484 -0.0314537,0.0703022 -0.0703022,0.0703022l0 0zm-0.28317 0l0 0c-0.0379014,0 -0.0693934,-0.0314537 -0.0693934,-0.0702926l9.56622e-006 -0.282204c0,-0.0389058 0.0314824,-0.0703596 0.0693838,-0.0703596 0.0388771,0 0.0722154,0.0314537 0.0722154,0.0703596l0 0.282194c0,0.0388484 -0.0333383,0.0703022 -0.0722154,0.0703022l0 0z"/>
  </g>
 </g>
</svg>
