<?xml version="1.0" encoding="UTF-8"?>
<!DOCTYPE svg PUBLIC "-//W3C//DTD SVG 1.1//EN" "http://www.w3.org/Graphics/SVG/1.1/DTD/svg11.dtd">
<!-- Creator: CorelDRAW -->
<svg xmlns="http://www.w3.org/2000/svg" xml:space="preserve" width="34.9378mm" height="34.9378mm" style="shape-rendering:geometricPrecision; text-rendering:geometricPrecision; image-rendering:optimizeQuality; fill-rule:evenodd; clip-rule:evenodd"
viewBox="0 0 3.23038 3.23038"
 xmlns:xlink="http://www.w3.org/1999/xlink">
 <defs>
  <style type="text/css">
   <![CDATA[
    .fil0 {fill:black}
   ]]>
  </style>
 </defs>
 <g id="Camada_x0020_1">
  <metadata id="CorelCorpID_0Corel-Layer"/>
  <g id="_436678536">
   <path id="_214658696" class="fil0" d="M2.66785 0.562569c-0.269218,-0.2692 -0.641216,-0.436462 -1.05263,-0.436462 -0.41146,0 -0.783449,0.167262 -1.05269,0.436462 -0.270032,0.2692 -0.436425,0.641244 -0.436425,1.05262 9.24609e-006,0.411405 0.166383,0.783421 0.436425,1.05354 0.269237,0.269163 0.641216,0.435546 1.05269,0.435546 0.411432,0 0.783393,-0.166383 1.05262,-0.435546 0.270087,-0.270115 0.436434,-0.642122 0.436434,-1.05354 9.24609e-006,-0.411377 -0.166356,-0.783421 -0.436434,-1.05262l9.24609e-006 0zm-1.05261 -0.562569c0.446235,0 0.849586,0.180715 1.14205,0.473095 0.292454,0.292491 0.473085,0.696693 0.473085,1.1421 1.84922e-005,0.446272 -0.180632,0.849641 -0.473085,1.1421 -0.292454,0.292417 -0.695814,0.473095 -1.14207,0.473095 -0.446309,-9.24609e-006 -0.849632,-0.180678 -1.14206,-0.473095 -0.292509,-0.292463 -0.473159,-0.695814 -0.473159,-1.1421 1.84922e-005,-0.445402 0.180641,-0.849604 0.473159,-1.1421 0.292435,-0.292389 0.69575,-0.473085 1.14206,-0.473085l1.84922e-005 -9.24609e-006z"/>
   <path id="_217627328" class="fil0" d="M2.15657 1.51395c-0.018899,0.0263513 -0.0639829,0.0376686 -0.0976757,0.0188158 -0.24075,-0.142806 -0.642871,-0.157868 -0.872239,-0.0864047 -0.0375021,0.0112895 -0.0752169,-0.0113172 -0.0863769,-0.0451764 -0.0114374,-0.0375391 0.01116,-0.0751799 0.0451117,-0.0864324 0.266888,-0.0789708 0.706641,-0.0638997 0.984912,0.101476 0.0338314,0.0188158 0.0450747,0.0639644 0.0262681,0.0977219zm-0.105257 0.229294c-0.0187696,0.0263976 -0.0525917,0.0376223 -0.0789523,0.0187973 -0.202979,-0.124018 -0.511355,-0.161659 -0.748064,-0.08634 -0.030096,0.00750782 -0.0638627,-0.00760028 -0.0714353,-0.0376686 -0.00747084,-0.0300498 0.00757255,-0.063872 0.0375484,-0.0714353 0.274415,-0.082697 0.612729,-0.04133 0.845786,0.101504 0.0227084,0.0112525 0.0339239,0.0489303 0.0151174,0.0751429zm-0.0902511 0.206807c-0.0149787,0.0225697 -0.0413115,0.0301422 -0.0639182,0.0151081 -0.176711,-0.109122 -0.398562,-0.131683 -0.661622,-0.071537 -0.0262774,0.0075633 -0.0488656,-0.0112155 -0.0563364,-0.0337944 -0.00751707,-0.0263513 0.0112247,-0.0488286 0.0338592,-0.0563641 0.285538,-0.0639644 0.533703,-0.0376408 0.729174,0.0827525 0.0264346,0.0112155 0.0301422,0.041367 0.0188435,0.063835zm-0.345859 -1.08642c-0.41343,0 -0.751855,0.338324 -0.751855,0.751818 0,0.413494 0.338407,0.75192 0.751846,0.75192 0.413568,-9.24609e-006 0.751846,-0.338416 0.751846,-0.75192 1.84922e-005,-0.413503 -0.334496,-0.751818 -0.751836,-0.751818z"/>
  </g>
 </g>
</svg>
